<?xml version="1.0" encoding="utf-8"?>
<!-- Generator: Adobe Illustrator 22.1.0, SVG Export Plug-In . SVG Version: 6.00 Build 0)  -->
<svg version="1.1" id="Layer_1" xmlns="http://www.w3.org/2000/svg" xmlns:xlink="http://www.w3.org/1999/xlink" x="0px" y="0px"
	 viewBox="0 0 336.3 56.3" style="enable-background:new 0 0 336.3 56.3;" xml:space="preserve">
<style type="text/css">
	.st0{fill:#FFFFFF;}
	.st1{fill:#8DC63F;}
</style>
<g>
	<g>
		<path class="st0" d="M80.2,52.6c-9.9,0-18.2-8-18.2-17.9V17c0-7.3,6-13.3,13.3-13.3h16.8V10H75.3c-3.4,0-6.3,2.8-6.3,6.3v19.1
			c0,6,5.2,11,11.2,11h11.9v6.3H80.2z"/>
		<path class="st0" d="M97.4,3.7h7l18.2,34.6V3.7h7v48.9h-7L104.4,18v34.6h-7V3.7z"/>
		<path class="st0" d="M135.2,52.6v-6.3h15.4c4.5,0,8.4-4,8.4-8.7c0-4-2.9-7.5-6.5-8.2l-9.2-1.9c-5.4-1.1-9.4-5.6-9.4-11.9
			c0-6.6,5.6-11.9,12.2-11.9h17.2V10h-16.8c-3.1,0-5.6,2.4-5.6,5.6c0,2.7,1.8,5,4.2,5.5l9.1,1.9c6.8,1.4,11.9,7.6,11.9,14.7
			c0,8.4-7,15-14.7,15H135.2z"/>
	</g>
	<path class="st1" d="M33.5,7.5c7.4,1.9,13.3,7.8,15.2,15.2c-2.6,0-4.8,1.9-5.3,4.4h-10c-0.1-0.7-0.4-1.4-0.8-2l3.6-3.6
		c0.4,0.2,0.8,0.3,1.3,0.3c1.6,0,3-1.3,3-3c0-1.6-1.3-3-3-3c-1.6,0-3,1.3-3,3c0,0.5,0.1,0.9,0.3,1.3l-3.6,3.6
		c-0.6-0.4-1.3-0.7-2-0.8v-10C31.6,12.3,33.5,10.1,33.5,7.5z M12.8,27.1h10c0.1-0.7,0.4-1.4,0.8-2l-3.6-3.6
		c-0.4,0.2-0.8,0.3-1.3,0.3c-1.6,0-3-1.3-3-3c0-0.5,0.1-0.9,0.3-1.3h0l0,0c0.3-0.6,0.8-1.1,1.4-1.4l0,0l0,0c0.4-0.2,0.8-0.3,1.3-0.3
		c1.6,0,3,1.3,3,3c0,0.5-0.1,0.9-0.3,1.3l3.6,3.6c0.6-0.4,1.3-0.7,2-0.8v-10c-2.5-0.5-4.4-2.6-4.4-5.3C15.3,9.4,9.4,15.3,7.5,22.7
		C10.1,22.7,12.3,24.6,12.8,27.1z M27.1,43.5V33.4c-0.7-0.1-1.4-0.4-2-0.8l-3.6,3.6c0.2,0.4,0.3,0.8,0.3,1.3c0,1.6-1.3,3-3,3
		c-1.6,0-3-1.3-3-3c0-1.6,1.3-3,3-3c0.5,0,0.9,0.1,1.3,0.3l3.6-3.6c-0.4-0.6-0.7-1.3-0.8-2h-10c-0.5,2.5-2.7,4.4-5.3,4.4
		c1.9,7.4,7.8,13.3,15.2,15.2C22.7,46.1,24.6,44,27.1,43.5z M43.5,29.1h-10c-0.1,0.7-0.4,1.4-0.8,2l3.6,3.6c0.4-0.2,0.8-0.3,1.3-0.3
		c1.6,0,3,1.3,3,3c0,0.5-0.1,0.9-0.3,1.3l0,0l0,0c-0.3,0.6-0.8,1.1-1.4,1.4l0,0h0c-0.4,0.2-0.8,0.3-1.3,0.3c-1.6,0-3-1.3-3-3
		c0-0.5,0.1-0.9,0.3-1.3l-3.6-3.6c-0.6,0.4-1.3,0.7-2,0.8v10.1c2.5,0.5,4.4,2.7,4.4,5.3C41,46.8,46.8,41,48.8,33.5
		C46.1,33.5,44,31.6,43.5,29.1z M56.3,28.1C56.3,12.6,43.7,0,28.1,0C12.6,0,0,12.6,0,28.1c0,15.5,12.6,28.1,28.1,28.1
		C43.7,56.3,56.3,43.7,56.3,28.1z M52.9,28.1c0,13.7-11.1,24.8-24.8,24.8c-13.7,0-24.8-11.1-24.8-24.8c0-13.7,11.1-24.8,24.8-24.8
		C41.8,3.4,52.9,14.5,52.9,28.1z"/>
	<g>
		<path class="st0" d="M178.1,35.2c-2.4,0-4.4-2-4.4-4.4v-4.5c0-1.8,1.4-3.2,3.2-3.2h4.1v1.2H177c-1,0-1.8,0.9-1.8,1.8V31
			c0,1.7,1.4,3,3,3h2.9v1.2H178.1z"/>
		<path class="st0" d="M187.6,34.4c-0.5,0.5-1.3,0.8-2,0.8h-0.7c-1.3,0-2.4-1-2.4-2.3v-6.3h1.4V33c0,0.5,0.4,1,1,1h0.7
			c1.1,0,2-0.8,2-1.9v-5.6h1.4v9.4c0,1.8-1.5,3.3-3.4,3.3h-2V38h2c1.1,0,2-0.9,2-2V34.4z"/>
		<path class="st0" d="M190.9,23.1h1.4v3.5h2.7c1.3,0,2.4,1,2.4,2.3v3c0,1.9-1.5,3.4-3.4,3.4h-3.1V23.1z M196,28.7c0-0.5-0.4-1-1-1
			h-2.7V34h1.7c1.1,0,2-0.9,2-2V28.7z"/>
		<path class="st0" d="M205.1,35.2h-2.7c-1.9,0-3.3-1.5-3.3-3.4v-3c0-1.3,1.1-2.3,2.4-2.3h1.6c1.4,0,2.4,1,2.4,2.3
			c0,1.1-0.9,2.1-1.9,2.3l-3.1,0.8V32c0,1.1,0.9,2,1.9,2h2.7V35.2z M200.4,30.7l2.8-0.7c0.5-0.1,0.8-0.5,0.8-1.1
			c0-0.6-0.5-1.1-1-1.1h-1.6c-0.6,0-1,0.5-1,1.1V30.7z"/>
		<path class="st0" d="M207.2,26.5h0.9l0.5,0.8c0.5-0.5,1.1-0.8,1.9-0.8h2.1v1.2h-2.1c-1.1,0-1.9,0.9-1.9,1.9v5.6h-1.4V26.5z"/>
		<path class="st0" d="M214.1,23.1h1.4v1.7h-1.4V23.1z M214.1,26.5h1.4v8.7h-1.4V26.5z"/>
		<path class="st0" d="M218.8,35.2h-1.4v-8.7h0.9l0.5,0.8c0.5-0.5,1.2-0.8,2-0.8h0.7c1.3,0,2.4,1,2.4,2.3v6.3h-1.4v-6.5
			c0-0.5-0.4-1-1-1h-0.7c-1.1,0-2,0.9-2,2V35.2z"/>
		<path class="st0" d="M227.2,25.4v1.1h2.3v1.2h-2.3v7.5h-1.4v-9.8c0-1.3,1.1-2.4,2.4-2.4h1.2v1.2h-1.2
			C227.7,24.3,227.2,24.8,227.2,25.4z"/>
		<path class="st0" d="M231.1,26.5h0.9l0.5,0.8c0.5-0.5,1.1-0.8,1.9-0.8h2.1v1.2h-2.1c-1.1,0-1.9,0.9-1.9,1.9v5.6h-1.4V26.5z"/>
		<path class="st0" d="M238.2,27.7v-1.2h3.4c1.3,0,2.3,1,2.3,2.3v6.4h-4.1c-1.4,0-2.3-1.1-2.3-2.4c0-1.1,0.9-2,1.9-2.3l3.1-0.7v-1.1
			c0-0.5-0.4-1-1-1H238.2z M239.9,34h2.7v-3l-2.8,0.7c-0.5,0.1-0.8,0.6-0.8,1.1C238.9,33.5,239.3,34,239.9,34z"/>
		<path class="st0" d="M247.5,31.2c-1.1-0.3-1.9-1.1-1.9-2.3c0-1.3,1.1-2.3,2.4-2.3h3.5v1.2H248c-0.6,0-1,0.5-1,1.1
			c0,0.6,0.3,1,0.8,1.1l2.3,0.6c1.1,0.3,1.9,1.2,1.9,2.3c0,1.3-1.1,2.3-2.4,2.3h-3.8V34h3.8c0.6,0,1-0.5,1-1.1c0-0.6-0.3-1-0.9-1.1
			L247.5,31.2z"/>
		<path class="st0" d="M257.2,34v1.2h-1c-1.4,0-2.4-1-2.4-2.3v-9.8h1.4v3.5h2.1v1.2h-2.1v5.1c0,0.6,0.5,1.1,1,1.1H257.2z"/>
		<path class="st0" d="M258.8,26.5h0.9l0.5,0.8c0.5-0.5,1.1-0.8,1.9-0.8h2.1v1.2h-2.1c-1.1,0-1.9,0.9-1.9,1.9v5.6h-1.4V26.5z"/>
		<path class="st0" d="M270.8,26.5h1.4v8.7h-0.9l-0.5-0.8c-0.5,0.5-1.2,0.8-2,0.8h-0.7c-1.3,0-2.4-1-2.4-2.3v-6.3h1.4V33
			c0,0.5,0.4,1,1,1h0.7c1.1,0,2-0.9,2-2V26.5z"/>
		<path class="st0" d="M277.1,35.2c-1.8,0-3.2-1.4-3.2-3.2v-3.2c0-1.3,1-2.3,2.4-2.3h3.5v1.2h-3.5c-0.5,0-1,0.4-1,1v3.5
			c0,1,0.8,1.8,1.8,1.8h2.7v1.2H277.1z"/>
		<path class="st0" d="M284.9,34v1.2h-1c-1.4,0-2.4-1-2.4-2.3v-9.8h1.4v3.5h2.1v1.2h-2.1v5.1c0,0.6,0.5,1.1,1,1.1H284.9z"/>
		<path class="st0" d="M291.5,26.5h1.4v8.7h-0.9l-0.5-0.8c-0.5,0.5-1.2,0.8-2,0.8h-0.7c-1.3,0-2.4-1-2.4-2.3v-6.3h1.4V33
			c0,0.5,0.4,1,1,1h0.7c1.1,0,2-0.9,2-2V26.5z"/>
		<path class="st0" d="M294.9,26.5h0.9l0.5,0.8c0.5-0.5,1.1-0.8,1.9-0.8h2.1v1.2h-2.1c-1.1,0-1.9,0.9-1.9,1.9v5.6h-1.4V26.5z"/>
		<path class="st0" d="M307.8,35.2H305c-1.9,0-3.3-1.5-3.3-3.4v-3c0-1.3,1.1-2.3,2.4-2.3h1.6c1.4,0,2.4,1,2.4,2.3
			c0,1.1-0.9,2.1-1.9,2.3l-3.1,0.8V32c0,1.1,0.9,2,1.9,2h2.7V35.2z M303.1,30.7l2.8-0.7c0.5-0.1,0.8-0.5,0.8-1.1
			c0-0.6-0.5-1.1-1-1.1h-1.6c-0.6,0-1,0.5-1,1.1V30.7z"/>
		<path class="st0" d="M315.1,25.4v1.1h2.3v1.2h-2.3v7.5h-1.4v-9.8c0-1.3,1.1-2.4,2.4-2.4h1.2v1.2h-1.2
			C315.5,24.3,315.1,24.8,315.1,25.4z"/>
		<path class="st0" d="M321.4,35.2c-1.5,0-2.7-1.2-2.7-2.7v-3.7c0-1.3,1-2.3,2.3-2.3h1.9c1.3,0,2.3,1,2.3,2.3v3.7
			c0,1.5-1.2,2.7-2.7,2.7H321.4z M322.7,34c0.7,0,1.3-0.6,1.3-1.3v-4c0-0.5-0.4-1-1-1h-1.9c-0.5,0-1,0.4-1,1v4
			c0,0.7,0.6,1.3,1.3,1.3H322.7z"/>
		<path class="st0" d="M327.1,26.5h0.9l0.5,0.8c0.5-0.5,1.1-0.8,1.9-0.8h2.1v1.2h-2.1c-1.1,0-1.9,0.9-1.9,1.9v5.6h-1.4V26.5z"/>
		<path class="st0" d="M173.9,40.4h1.4l5,9.4v-9.4h1.4v12.2h-1.4l-5-9.4v9.4h-1.4V40.4z"/>
		<path class="st0" d="M189.6,52.6h-2.7c-1.9,0-3.3-1.5-3.3-3.4v-3c0-1.3,1.1-2.3,2.4-2.3h1.6c1.4,0,2.4,1,2.4,2.3
			c0,1.1-0.9,2.1-1.9,2.3l-3.1,0.8v0.1c0,1.1,0.9,2,1.9,2h2.7V52.6z M184.9,48.1l2.8-0.7c0.5-0.1,0.8-0.5,0.8-1.1
			c0-0.6-0.5-1.1-1-1.1H186c-0.6,0-1,0.5-1,1.1V48.1z"/>
		<path class="st0" d="M195.1,51.4v1.2h-1c-1.4,0-2.4-1-2.4-2.3v-9.8h1.4v3.5h2.1v1.2H193v5.1c0,0.6,0.5,1.1,1,1.1H195.1z"/>
		<path class="st0" d="M201.9,43.9h1.4l2,6.5l2-6.5h1.5l-2.8,8.7h-1.4l-2-6.2l-2,6.2h-1.4l-2.8-8.7h1.5l2,6.5L201.9,43.9z"/>
		<path class="st0" d="M212.5,52.6c-1.5,0-2.7-1.2-2.7-2.7v-3.7c0-1.3,1-2.3,2.3-2.3h1.9c1.3,0,2.3,1,2.3,2.3v3.7
			c0,1.5-1.2,2.7-2.7,2.7H212.5z M213.8,51.4c0.7,0,1.3-0.6,1.3-1.3v-4c0-0.5-0.4-1-1-1h-1.9c-0.5,0-1,0.4-1,1v4
			c0,0.7,0.6,1.3,1.3,1.3H213.8z"/>
		<path class="st0" d="M218.3,43.9h0.9l0.5,0.8c0.5-0.5,1.1-0.8,1.9-0.8h2.1v1.2h-2.1c-1.1,0-1.9,0.9-1.9,1.9v5.6h-1.4V43.9z"/>
		<path class="st0" d="M225.3,40.4h1.4v12.2h-1.4V40.4z M230.8,43.9h1.8l-4.2,4.3l4.2,4.3h-1.8l-4.1-4.3L230.8,43.9z"/>
		<path class="st0" d="M237.8,52.6v-1.2h3.7c1.3,0,2.4-1.1,2.4-2.4c0-1.1-0.8-2.1-1.7-2.3l-2.4-0.5c-1.3-0.3-2.3-1.4-2.3-2.8
			c0-1.6,1.3-2.9,2.9-2.9h4.2v1.2h-4.1c-0.9,0-1.7,0.7-1.7,1.7c0,0.7,0.5,1.5,1.2,1.6l2.3,0.5c1.7,0.3,2.9,1.8,2.9,3.6
			c0,2-1.6,3.7-3.7,3.7H237.8z"/>
		<path class="st0" d="M250,52.6c-1.8,0-3.2-1.4-3.2-3.2v-3.2c0-1.3,1-2.3,2.4-2.3h3.5v1.2h-3.5c-0.5,0-1,0.4-1,1v3.5
			c0,1,0.8,1.8,1.8,1.8h2.7v1.2H250z"/>
		<path class="st0" d="M254.3,40.4h1.4v1.7h-1.4V40.4z M254.3,43.9h1.4v8.7h-1.4V43.9z"/>
		<path class="st0" d="M263.6,52.6h-2.7c-1.9,0-3.3-1.5-3.3-3.4v-3c0-1.3,1.1-2.3,2.4-2.3h1.6c1.4,0,2.4,1,2.4,2.3
			c0,1.1-0.9,2.1-1.9,2.3l-3.1,0.8v0.1c0,1.1,0.9,2,1.9,2h2.7V52.6z M258.9,48.1l2.8-0.7c0.5-0.1,0.8-0.5,0.8-1.1
			c0-0.6-0.5-1.1-1-1.1h-1.6c-0.6,0-1,0.5-1,1.1V48.1z"/>
		<path class="st0" d="M267,52.6h-1.4v-8.7h0.9l0.5,0.8c0.5-0.5,1.2-0.8,2-0.8h0.7c1.3,0,2.4,1,2.4,2.3v6.3h-1.4v-6.5
			c0-0.5-0.4-1-1-1H269c-1.1,0-2,0.9-2,2V52.6z"/>
		<path class="st0" d="M277,52.6c-1.8,0-3.2-1.4-3.2-3.2v-3.2c0-1.3,1-2.3,2.4-2.3h3.5v1.2h-3.5c-0.5,0-1,0.4-1,1v3.5
			c0,1,0.8,1.8,1.8,1.8h2.7v1.2H277z"/>
		<path class="st0" d="M287.2,52.6h-2.7c-1.9,0-3.3-1.5-3.3-3.4v-3c0-1.3,1.1-2.3,2.4-2.3h1.6c1.4,0,2.4,1,2.4,2.3
			c0,1.1-0.9,2.1-1.9,2.3l-3.1,0.8v0.1c0,1.1,0.9,2,1.9,2h2.7V52.6z M282.5,48.1l2.8-0.7c0.5-0.1,0.8-0.5,0.8-1.1
			c0-0.6-0.5-1.1-1-1.1h-1.6c-0.6,0-1,0.5-1,1.1V48.1z"/>
		<path class="st0" d="M297.3,52.6c-2.4,0-4.4-2-4.4-4.4v-4.5c0-1.8,1.4-3.2,3.2-3.2h4.1v1.2h-4.1c-1,0-1.8,0.9-1.8,1.8v4.9
			c0,1.7,1.4,3,3,3h2.9v1.2H297.3z"/>
		<path class="st0" d="M307.6,52.6h-2.7c-1.9,0-3.3-1.5-3.3-3.4v-3c0-1.3,1.1-2.3,2.4-2.3h1.6c1.4,0,2.4,1,2.4,2.3
			c0,1.1-0.9,2.1-1.9,2.3l-3.1,0.8v0.1c0,1.1,0.9,2,1.9,2h2.7V52.6z M302.9,48.1l2.8-0.7c0.5-0.1,0.8-0.5,0.8-1.1
			c0-0.6-0.5-1.1-1-1.1h-1.6c-0.6,0-1,0.5-1,1.1V48.1z"/>
		<path class="st0" d="M311,52.6h-1.4v-8.7h0.9l0.5,0.8c0.5-0.5,1.2-0.8,2-0.8h0.7c1.3,0,2.4,1,2.4,2.3v6.3h-1.4v-6.5
			c0-0.5-0.4-1-1-1h-0.7c-1.1,0-2,0.9-2,2V52.6z"/>
		<path class="st0" d="M321.4,51.4v1.2h-1c-1.4,0-2.4-1-2.4-2.3v-9.8h1.4v3.5h2.1v1.2h-2.1v5.1c0,0.6,0.5,1.1,1,1.1H321.4z"/>
		<path class="st0" d="M328.9,52.6h-2.7c-1.9,0-3.3-1.5-3.3-3.4v-3c0-1.3,1.1-2.3,2.4-2.3h1.6c1.4,0,2.4,1,2.4,2.3
			c0,1.1-0.9,2.1-1.9,2.3l-3.1,0.8v0.1c0,1.1,0.9,2,1.9,2h2.7V52.6z M324.2,48.1l2.8-0.7c0.5-0.1,0.8-0.5,0.8-1.1
			c0-0.6-0.5-1.1-1-1.1h-1.6c-0.6,0-1,0.5-1,1.1V48.1z"/>
		<path class="st0" d="M330.9,43.9h0.9l0.5,0.8c0.5-0.5,1.1-0.8,1.9-0.8h2.1v1.2h-2.1c-1.1,0-1.9,0.9-1.9,1.9v5.6h-1.4V43.9z"/>
	</g>
</g>
</svg>
